<svg width="168" height="42" viewBox="0 0 168 42" fill="none" xmlns="http://www.w3.org/2000/svg">
<path d="M123.257 18.8519C122.738 8.2936 114.002 -0.000828247 103.401 0C97.9905 0 92.6677 3.51991 88.6231 9.73534L85.2177 8.39036L87.3449 22.7479L98.7522 13.7388L95.5938 12.4901C98.0443 9.19067 100.859 7.28251 103.397 7.28251C110.068 7.28136 115.58 12.4705 115.963 19.1113V38.3615C115.963 40.371 117.597 42 119.612 42C121.627 42 123.261 40.371 123.261 38.3615V19.0242L123.257 18.8519Z" fill="url(#paint0_linear_1749_2960)"/>
<path fill-rule="evenodd" clip-rule="evenodd" d="M87.6525 28.8884V38.3486C87.6525 40.365 89.2876 41.9996 91.3046 41.9996C93.3216 41.9996 94.9567 40.365 94.9567 38.3486V23.1298L87.6525 28.8884ZM94.9724 23.1174C94.9743 23.6516 94.9745 23.8048 94.9714 23.1182L94.9724 23.1174Z" fill="#2CE080"/>
<path fill-rule="evenodd" clip-rule="evenodd" d="M72.7398 18.5649L80.0441 12.8063V3.65128C80.0441 1.63484 78.409 0.000200272 76.3919 0.000200272C74.3749 0.000200272 72.7398 1.63484 72.7398 3.65128V18.5649ZM72.7237 18.5777L72.7231 18.5781C72.7225 18.3857 72.7226 18.356 72.7237 18.5777ZM75.2672 29.6403C75.6537 29.7538 76.059 29.7484 76.4632 29.6403H75.2672Z" fill="#2CE080"/>
<path d="M26.1867 21.0079L40.9273 6.25803C42.2563 4.81294 42.2103 2.57724 40.8231 1.18799C39.4358 -0.201252 37.2002 -0.250442 35.7532 1.07644L21.0033 15.817L6.2627 1.07644C4.83184 -0.35699 2.50988 -0.359079 1.07644 1.07178C-0.356991 2.50263 -0.359079 4.8246 1.07178 6.25803L15.8217 21.0079L1.08111 35.7485C-0.286143 37.1881 -0.258388 39.4546 1.14371 40.8602C2.5458 42.2658 4.81225 42.2993 6.25524 40.9357L20.9958 26.1858L35.7532 40.9357C37.1859 42.3584 39.4996 42.3542 40.9271 40.9262C42.3546 39.4981 42.358 37.1845 40.9348 35.7522L26.1867 21.0079Z" fill="#2CE080"/>
<path fill-rule="evenodd" clip-rule="evenodd" d="M126.001 21.0061C125.998 9.40934 135.395 0.00507941 146.992 2.01569e-06C152.563 -0.00243718 157.907 2.20898 161.847 6.1475C165.787 10.086 168.001 15.4288 168.001 21C168.001 32.5967 158.601 41.9983 147.004 42C135.407 42.0016 126.004 32.6029 126.001 21.0061ZM160.5 18.316C159.22 11.8697 153.564 7.22535 146.992 7.22297C143.335 7.21146 139.825 8.66435 137.246 11.2575C132.599 15.9044 131.881 23.1871 135.531 28.6522C139.182 34.1174 146.184 36.2429 152.257 33.7291C158.329 31.2154 161.78 24.7623 160.5 18.316Z" fill="#2CE080"/>
<path d="M45.3333 23.1481C45.8525 33.7064 54.5899 42.0008 65.192 42C70.6026 42 75.9241 38.48 79.9709 32.2665L83.3767 33.6096L81.2474 19.2521L69.8408 28.2667L72.9995 29.5154C70.5488 32.8167 67.732 34.723 65.1957 34.723C58.5206 34.7247 53.0063 29.5281 52.6316 22.8831V3.63848C52.6316 1.629 50.9978 0 48.9824 0C46.9671 0 45.3333 1.629 45.3333 3.63848V22.9758L45.3333 23.1481Z" fill="#03314B"/>
<defs>
<linearGradient id="paint0_linear_1749_2960" x1="104.239" y1="0" x2="104.239" y2="42" gradientUnits="userSpaceOnUse">
<stop stop-color="#03314B"/>
<stop offset="1" stop-color="#03314B"/>
</linearGradient>
</defs>
</svg>
